Title...........All Good Things
Year............2010
Director........Andrew Jarecki
Cast............Ryan Gosling, Kirsten Dunst, Frank Langella, Lily Rabe, Philip Baker Hall, Michael Esper  
 
http://www.imdb.com/title/tt1175709/

Language........English
subtitle.(not include): FOR English, see here:- 
http://subscene.com/english/All-Good-Things/subtitle-392375.aspx
                        FOR Hebrew:  see here:- 
http://www.sratim.co.il/subtitles.php?mid=47538 
                


Video: 1280x720 @bitrate 4500
Audio: English AC3 5.1 @384
Sample: yes included


General
Complete name : All.Good.Things.2010.720P.Bluray.X264.Hive-CM8.mkv
Format : Matroska
File size : 3.44 GiB
Duration : 1h 40mn
Overall bit rate : 4 881 Kbps
Encoded date : UTC 2010-12-06 16:04:53
Writing application : mkvmerge v3.3.0 (\'Language\') built on Mar 24 2010 14:59:24
Writing library : libebml v0.8.0 + libmatroska v0.9.0

Video
ID : 1
Format : AVC
Format/Info : Advanced Video Codec
Format profile : High@L3.1
Format settings, CABAC : Yes
Format settings, ReFrames : 5 frames
Muxing mode : Container profile=Unknown@3.1
Codec ID : V_MPEG4/ISO/AVC
Duration : 1h 40mn
Bit rate : 4 500 Kbps
Width : 1 280 pixels
Height : 720 pixels
Display aspect ratio : 16:9
Frame rate : 23.976 fps
Color space : YUV
Chroma subsampling : 4:2:0
Bit depth : 8 bits
Scan type : Progressive
Bits/(Pixel*Frame) : 0.204
Stream size : 3.10 GiB (90%)
Writing library : x264 core 98 r1649 c54c47d
Language : English

Audio
ID : 2
Format : AC-3
Format/Info : Audio Coding 3
Mode extension : CM (complete main)
Codec ID : A_AC3
Duration : 1h 40mn
Bit rate mode : Constant
Bit rate : 384 Kbps
Channel(s) : 6 channels
Channel positions : Front: L C R, Side: L R, LFE
Sampling rate : 48.0 KHz
Bit depth : 16 bits
Stream size : 277 MiB (8%)
Language : English


All Good Things is a love story and murder mystery based on the most notorious unsolved 
murder case in New York


Referred from: http://1337x.org

